<svg xmlns="http://www.w3.org/2000/svg" viewBox="0 0 128.097 115.8"><title>behance</title><rect x="11.861" width="0.643" height="115.8"/><rect y="11.025" width="128.097" height="0.643"/><rect x="0.066" y="104.116" width="128.031" height="0.643"/><rect x="116.428" width="0.643" height="115.8"/><path d="M58.061,54.607s5.992-.445,5.992-7.472S59.154,36.68,52.945,36.68H32.514V75.946H52.945s12.47.394,12.47-11.591C65.415,64.355,65.962,54.607,58.061,54.607ZM41.514,43.659H52.945s2.776,0,2.776,4.085-1.631,4.678-3.486,4.678H41.514ZM52.369,68.968c-.3.007-.561,0-.732,0H41.514V58.474H52.945s4.137-.054,4.137,5.392C57.082,68.459,53.992,68.932,52.369,68.968Z"/><path d="M82.053,46.671c-15.1,0-15.085,15.088-15.085,15.088S65.931,76.767,82.053,76.767c0,0,13.437.768,13.437-10.442H88.576s.232,4.224-6.291,4.224c0,0-6.913.461-6.913-6.835h20.35S97.947,46.671,82.053,46.671ZM75.3,58.474s.847-6.052,6.908-6.052,5.988,6.052,5.988,6.052Z"/><rect x="73.608" y="38.993" width="16.197" height="4.837"/></svg>