<svg xmlns="http://www.w3.org/2000/svg" viewBox="0 0 128.097 115.8"><defs><style>.a{fill-rule:evenodd;}</style></defs><title>dribbble</title><rect x="11.861" width="0.643" height="115.8"/><rect y="11.025" width="128.097" height="0.643"/><rect x="0.066" y="104.116" width="128.031" height="0.643"/><rect x="116.429" width="0.643" height="115.8"/><path class="a" d="M82.372,53A20.054,20.054,0,1,0,46.109,68.248a20.089,20.089,0,0,0,8.818,7.26,20.024,20.024,0,0,0,19.015-1.849A20.074,20.074,0,0,0,81.2,64.841a19.936,19.936,0,0,0,1.169-3.767,20.136,20.136,0,0,0,0-8.074Zm-2.526,3.865A39.611,39.611,0,0,0,67.922,56.3c-.121-.294-.243-.587-.37-.883-.356-.838-.739-1.667-1.137-2.485,6.76-2.759,9.505-6.728,9.538-6.777A17.042,17.042,0,0,1,79.846,56.866Zm-5.807-12.68c-.042.066-2.48,3.779-8.943,6.2A87.235,87.235,0,0,0,58.7,40.4a17.1,17.1,0,0,1,15.341,3.788ZM58.631,40.412l0,0s-.02.006-.051.011C58.593,40.421,58.613,40.419,58.631,40.412Zm-3.2,1.139a103.675,103.675,0,0,1,6.356,9.865,63.369,63.369,0,0,1-15.807,2.091A17.145,17.145,0,0,1,55.427,41.551ZM45.61,57.034c0-.182.008-.36.014-.54A62.869,62.869,0,0,0,63.2,54.055c.492.959.96,1.936,1.389,2.909-.227.065-.45.132-.674.206-9.241,2.985-13.927,11.3-13.927,11.3l.007.008A17.062,17.062,0,0,1,45.61,57.034ZM62.732,74.158a17.051,17.051,0,0,1-10.907-3.923c.226.182.383.3.383.3s3.281-7.158,13.437-10.695a1.006,1.006,0,0,1,.113-.036,71.186,71.186,0,0,1,3.658,13A17.065,17.065,0,0,1,62.732,74.158ZM72.3,71.237a74.087,74.087,0,0,0-3.332-12.23,24.8,24.8,0,0,1,10.67.748A17.133,17.133,0,0,1,72.3,71.237Z"/></svg>